<?xml version="1.0" encoding="iso-8859-1"?>
<!-- Generator: Adobe Illustrator 19.0.0, SVG Export Plug-In . SVG Version: 6.00 Build 0)  -->
<svg version="1.1" id="Layer_1" xmlns="http://www.w3.org/2000/svg" xmlns:xlink="http://www.w3.org/1999/xlink" x="0px" y="0px"
	 viewBox="0 0 512 512" style="enable-background:new 0 0 512 512;" xml:space="preserve">
<rect x="14.178" y="92.214" style="fill:#CEE8FA;" width="296.547" height="71.753"/>
<g>
	<path style="fill:#2D527C;" d="M310.732,178.144H14.178C6.349,178.144,0,171.796,0,163.966V92.213
		c0-7.831,6.349-14.178,14.178-14.178h296.554c7.829,0,14.178,6.347,14.178,14.178v71.753
		C324.91,171.796,318.563,178.144,310.732,178.144z M28.356,149.788h268.198V106.39H28.356V149.788z"/>
	<path style="fill:#2D527C;" d="M310.732,306.055h-60.79c-7.829,0-14.178-6.348-14.178-14.178c0-7.831,6.349-14.178,14.178-14.178
		h46.612v-43.396H28.356v43.396h134.1c7.829,0,14.178,6.348,14.178,14.178c0,7.83-6.349,14.178-14.178,14.178H14.178
		C6.349,306.055,0,299.707,0,291.877v-71.752c0-7.83,6.349-14.178,14.178-14.178h296.554c7.829,0,14.178,6.348,14.178,14.178v71.752
		C324.91,299.707,318.563,306.055,310.732,306.055z"/>
</g>
<rect x="14.178" y="348.027" style="fill:#CEE8FA;" width="296.547" height="71.753"/>
<path style="fill:#2D527C;" d="M310.732,433.966H14.178C6.349,433.966,0,427.619,0,419.788v-71.753
	c0-7.831,6.349-14.178,14.178-14.178h296.554c7.829,0,14.178,6.348,14.178,14.178v71.753
	C324.91,427.618,318.563,433.966,310.732,433.966z M28.356,405.61h268.198v-43.397H28.356V405.61z"/>
<polygon style="fill:#CEE8FA;" points="433.665,175.48 497.822,92.213 369.507,92.213 "/>
<path style="fill:#2D527C;" d="M433.664,189.658c-4.398,0-8.546-2.04-11.23-5.524l-64.157-83.266
	c-3.298-4.28-3.876-10.064-1.492-14.912c2.385-4.847,7.317-7.92,12.722-7.92h128.315c5.405,0,10.337,3.072,12.723,7.92
	c2.385,4.849,1.805,10.632-1.493,14.912l-64.158,83.266C442.21,187.616,438.062,189.658,433.664,189.658z M398.329,106.39
	l35.334,45.859L469,106.39H398.329z"/>
<g>
</g>
<g>
</g>
<g>
</g>
<g>
</g>
<g>
</g>
<g>
</g>
<g>
</g>
<g>
</g>
<g>
</g>
<g>
</g>
<g>
</g>
<g>
</g>
<g>
</g>
<g>
</g>
<g>
</g>
</svg>
